<svg width="490" height="326" viewBox="0 0 490 326" fill="none" xmlns="http://www.w3.org/2000/svg">
<g clip-path="url(#clip0_3323_1682)">
<path opacity="0.35" d="M96.4365 64.6784C131.883 60.5056 187.139 97.5392 192.873 145.526" stroke="#F2E7EE" stroke-width="0.8738" stroke-miterlimit="10" stroke-linecap="round"/>
<path opacity="0.35" d="M394.606 64.6784C359.159 60.5056 303.904 97.5392 298.17 145.526" stroke="#F2E7EE" stroke-width="0.8738" stroke-miterlimit="10" stroke-linecap="round"/>
<path opacity="0.35" d="M358.117 37.5553C322.67 33.3825 264.808 92.0625 256.468 164.043" stroke="#F2E7EE" stroke-width="1.0717" stroke-miterlimit="10" stroke-linecap="round"/>
<path opacity="0.35" d="M132.665 38.3376C168.112 34.1648 225.974 92.8448 234.314 164.826" stroke="#F2E7EE" stroke-width="1.0717" stroke-miterlimit="10" stroke-linecap="round"/>
<path d="M317.196 253.237V169.52L244.999 127.792L172.542 169.52V253.237L244.999 294.965L317.196 253.237Z" fill="#C64F88"/>
<path d="M244.999 211.509V294.965L172.542 253.237V169.52L244.999 211.509Z" fill="#A83B75"/>
<path d="M317.196 169.52V253.237L244.999 294.965V211.509L172.542 169.52L244.999 127.792L317.196 169.52Z" fill="#E45C96"/>
<path d="M253.34 232.634L257.249 230.287V259.235L253.34 261.583V232.634Z" fill="white"/>
<path d="M267.675 224.288L271.845 221.941L280.707 237.328V216.986L284.095 214.899V243.848L280.446 245.935L271.063 228.983H270.802V251.151L267.414 253.237V224.288H267.675Z" fill="white"/>
<path d="M294.781 208.64L298.691 206.293V220.637L307.292 201.598L311.201 199.251L304.425 214.117L311.201 228.2L307.031 230.547L301.558 218.811L298.691 225.07V235.241L294.781 237.589V208.64Z" fill="white"/>
<path d="M253.601 265.494L311.202 232.373V236.806L253.601 269.928V265.494Z" fill="white"/>
<path d="M317.196 169.52L244.999 211.509L172.542 169.52L244.999 127.792L317.196 169.52Z" fill="#AF4377"/>
<path d="M245 211.509L208.771 232.373L136.313 190.645L172.542 169.52" fill="#E45C96"/>
<path d="M316.936 169.52L352.904 190.645L280.707 232.373L244.478 211.509L316.675 169.52L352.904 148.656L280.447 106.928L244.218 127.792" fill="#EF67A8"/>
<path d="M244.739 127.792L208.51 106.928L136.053 148.656L172.281 169.52L244.739 127.792Z" fill="#E45C96"/>
<path d="M332.575 101.712L334.66 96.7568L337.006 101.712L341.958 103.798L337.006 105.885L334.66 111.101L332.575 105.885L327.884 103.798L332.575 101.712Z" fill="white"/>
<path d="M118.33 164.043L120.676 159.088L122.761 164.043L127.713 166.129L122.761 168.216L120.676 173.432L118.33 168.216L113.639 166.129L118.33 164.043Z" fill="white"/>
<path d="M345.085 120.751L349.255 111.101L353.686 120.751L363.33 125.184L353.686 129.618L349.255 139.528L345.085 129.618L335.441 125.184L345.085 120.751Z" fill="white"/>
<path d="M347.171 127.531L349.256 132.226L351.341 127.531L356.033 125.184L351.341 122.837L349.256 118.143L347.171 122.837L342.479 125.184L347.171 127.531Z" fill="white"/>
<path d="M167.069 269.667L164.723 274.622L162.638 269.667L157.686 267.581L162.638 265.494L164.723 260.278L167.069 265.494L171.76 267.581L167.069 269.667Z" fill="white"/>
<path d="M340.133 253.237L338.048 258.192L335.702 253.237L331.011 251.15L335.702 249.064L338.048 244.109L340.133 249.064L344.825 251.15L340.133 253.237Z" fill="white"/>
<path d="M154.558 250.629L150.127 260.278L145.957 250.629L136.313 246.195L145.957 241.761L150.127 231.851L154.558 241.761L164.202 246.195L154.558 250.629Z" fill="white"/>
<path d="M152.212 243.848L150.127 239.153L148.042 243.848L143.611 246.195L148.042 248.542L150.127 253.237L152.212 248.542L156.904 246.195L152.212 243.848Z" fill="white"/>
<path d="M229.504 131.261L174.076 102.813L155.043 139.943L210.471 168.391L229.504 131.261Z" fill="#81C8F7"/>
<path d="M200.952 140.05L189.744 122.576L180.101 141.093L200.952 140.05Z" fill="#F2E7EE"/>
<path opacity="0.3" d="M262.202 127.531C272.567 127.531 280.968 119.124 280.968 108.753C280.968 98.3826 272.567 89.9756 262.202 89.9756C251.838 89.9756 243.437 98.3826 243.437 108.753C243.437 119.124 251.838 127.531 262.202 127.531Z" fill="white" stroke="#8989F7" stroke-width="0.75" stroke-miterlimit="10"/>
<path d="M262.203 89.9758C264.548 89.9758 266.633 90.4974 268.979 91.2798C278.623 94.931 283.575 105.885 279.665 115.534C276.798 123.097 269.761 127.531 262.203 127.531C259.857 127.531 257.772 127.009 255.426 126.227C245.782 122.576 240.83 111.622 244.74 101.973C247.346 94.6702 254.644 89.9758 262.203 89.9758ZM262.203 84.7598C252.298 84.7598 243.437 91.019 239.788 100.147C237.442 106.145 237.703 112.665 240.309 118.403C242.915 124.141 247.607 128.835 253.602 131.182C256.469 132.225 259.336 132.747 262.203 132.747C272.107 132.747 280.969 126.488 284.617 117.36C289.309 105.102 283.054 91.019 270.804 86.3246C267.937 85.2814 265.07 84.7598 262.203 84.7598Z" fill="#8989F7"/>
<path d="M247.606 108.232C247.606 106.667 248.128 105.363 248.649 103.798C251.255 97.0174 258.293 93.1054 265.33 94.4094" stroke="#C2C2F9" stroke-width="0.5351" stroke-miterlimit="10" stroke-linecap="round"/>
<path d="M258.624 126.809L253.027 124.66L250.506 131.234L256.103 133.383L258.624 126.809Z" fill="#8989F7"/>
<path d="M243.176 158.827L242.655 158.566C240.57 157.784 239.788 155.697 240.57 153.611L248.65 132.747C249.432 130.66 251.517 129.878 253.602 130.66L254.123 130.921C256.208 131.704 256.99 133.79 256.208 135.876L248.128 156.74C247.607 158.827 245.261 159.609 243.176 158.827Z" fill="#7676E2"/>
<path d="M196.521 78.7617C196.782 74.8496 198.346 71.1984 200.692 68.0688" stroke="#F5D46C" stroke-width="2.1998" stroke-miterlimit="10"/>
<path d="M199.91 91.2801C199.649 91.0193 199.389 90.7585 199.389 90.2369C197.043 86.5857 196.261 82.6737 196.522 78.7617" stroke="#595D75" stroke-width="2.1998" stroke-miterlimit="10"/>
<path d="M214.767 98.843C209.033 98.5822 203.559 95.9742 199.91 91.019" stroke="#D57AA2" stroke-width="2.1998" stroke-miterlimit="10"/>
<path d="M233.793 81.3696C233.533 87.1072 230.405 92.584 225.192 95.9744C221.804 98.0608 218.155 99.104 214.767 98.8432" stroke="#D57AA2" stroke-width="2.1998" stroke-miterlimit="10"/>
<path d="M210.856 61.8095C218.415 59.9839 226.495 63.1135 230.926 70.1551C233.011 73.5455 234.053 77.7183 233.793 81.3695" stroke="#329EE6" stroke-width="2.1998" stroke-miterlimit="10"/>
<path d="M200.691 68.3295C201.995 66.7647 203.298 65.4607 205.122 64.4175C206.947 63.3743 209.032 62.3311 210.856 62.0703" stroke="#E4E4E4" stroke-width="2.1998" stroke-miterlimit="10"/>
<path d="M331.01 160.392L252.298 193.253C251.516 193.514 250.473 193.253 250.212 192.471L236.659 160.131C236.399 159.349 236.659 158.306 237.441 158.045L316.154 125.184C316.936 124.923 317.978 125.184 318.239 125.967L331.792 158.306C332.313 159.088 331.792 159.871 331.01 160.392Z" fill="white"/>
<path d="M312.944 133.738L246.335 161.595L249.752 169.776L316.361 141.919L312.944 133.738Z" fill="#D1C4E9"/>
<path d="M298.442 157.121L252.514 176.329L255.931 184.509L301.86 165.302L298.442 157.121Z" fill="#D1C4E9"/>
<path d="M190.005 88.411L160.292 100.929C158.728 101.712 156.904 100.929 156.122 99.3646L140.744 62.8526C139.962 61.2878 140.744 59.4622 142.308 58.6798L172.021 46.1614C173.585 45.379 175.409 46.1614 176.191 47.7262L191.569 84.2382C192.351 86.0638 191.569 87.8894 190.005 88.411Z" fill="#DDCDFF"/>
<path d="M180.306 70.7071L152.652 82.272L153.456 84.1969L181.11 72.632L180.306 70.7071Z" fill="#C6BBF8"/>
<path d="M182.64 76.1656L154.986 87.7305L155.79 89.6554L183.444 78.0905L182.64 76.1656Z" fill="#C6BBF8"/>
<path d="M177.253 84.5335L157.054 92.981L157.858 94.9059L178.057 86.4584L177.253 84.5335Z" fill="#C6BBF8"/>
<path d="M151.691 75.3712L155.079 59.4624L167.329 67.2864L168.111 60.7664L176.973 65.4608L151.17 76.4144L151.691 75.3712Z" fill="#C6BBF8"/>
<path d="M309.378 92.3233L293.479 83.1953C292.697 82.6737 292.436 81.6305 292.958 80.8481L304.165 61.2881C304.686 60.5057 305.729 60.2449 306.511 60.7665L322.41 69.8945C323.192 70.4161 323.452 71.4593 322.931 72.2417L311.724 91.8017C311.202 92.5841 310.16 92.8449 309.378 92.3233Z" fill="#ECCDFF"/>
<path d="M313.938 81.8208L299.041 73.2144L298.389 74.3436L313.286 82.95L313.938 81.8208Z" fill="#D7BBF8"/>
<path d="M312.395 84.768L297.498 76.1616L296.846 77.2909L311.744 85.8973L312.395 84.768Z" fill="#D7BBF8"/>
<path d="M306.736 85.1391L295.901 78.8799L295.25 80.0091L306.084 86.2684L306.736 85.1391Z" fill="#D7BBF8"/>
<path d="M302.08 70.1552L310.42 66.2432L311.202 74.5888L314.33 72.7632L315.112 78.5008L301.298 70.416L302.08 70.1552Z" fill="#D7BBF8"/>
<g opacity="0.8">
<path opacity="0.8" d="M261.941 43.5537L260.899 46.4225C260.638 46.9441 260.899 47.4657 261.42 47.4657L279.926 52.4209C280.447 52.6817 280.707 53.2033 280.447 53.4641L273.931 70.4161C273.67 70.9377 273.149 71.1985 272.628 71.1985L241.351 62.8529C240.83 62.5921 240.569 62.0705 240.83 61.8097L249.17 40.1633C249.431 39.6417 249.952 39.3809 250.473 39.3809L261.42 42.2497C261.681 42.7713 261.941 43.0321 261.941 43.5537Z" fill="#E2A33D"/>
<path opacity="0.8" d="M258.553 42.7714L257.771 45.6402C257.771 46.1618 258.032 46.6834 258.553 46.9442L277.059 51.8994C277.58 52.1602 277.841 52.6818 277.841 53.2034L273.931 70.9378C273.931 71.4594 273.41 71.7202 272.628 71.7202L241.351 63.3746C240.83 63.1138 240.569 62.5922 240.569 62.0706L245.782 39.381C245.782 38.8594 246.303 38.5986 247.085 38.5986L258.032 41.4674C258.293 41.7282 258.553 42.2498 258.553 42.7714Z" fill="#FCD390"/>
</g>
<path d="M125.367 80.8479C127.712 84.4991 126.67 89.7151 123.021 92.0623C119.372 94.4095 114.159 93.3663 111.814 89.7151C109.989 86.8463 110.25 83.4559 111.814 80.5871L115.202 86.0639C116.244 87.6287 118.069 87.8895 119.633 87.1071C121.196 86.0639 121.457 84.2383 120.675 82.6735L117.287 77.4575C120.415 76.6751 123.542 78.2399 125.367 80.8479Z" fill="#588FDE"/>
<path d="M123.05 86.7784L118.451 89.749L130.468 108.375L135.066 105.404L123.05 86.7784Z" fill="#588FDE"/>
<path d="M145.175 122.315L141.266 124.923C140.484 125.445 139.441 125.184 138.66 124.402L127.973 107.971C127.452 107.189 127.713 106.146 128.495 105.363L132.404 102.755C133.186 102.234 134.229 102.494 135.011 103.277L145.697 119.707C146.479 120.75 146.218 121.794 145.175 122.315Z" fill="#5289CC"/>
<path d="M245 181.256L230.144 181.517L230.404 187.254C230.926 187.254 231.186 187.515 231.447 187.776C231.708 188.037 231.968 188.298 232.49 188.558C233.532 189.602 234.053 190.906 234.053 192.21C234.053 193.514 233.532 194.818 232.49 195.861C231.447 196.904 230.144 197.426 228.841 197.426C227.537 197.426 226.234 196.904 225.192 195.861C224.149 194.818 223.628 193.514 223.628 192.21C223.628 190.906 224.149 189.602 225.192 188.558C225.452 188.298 225.713 188.037 226.234 187.776C226.495 187.515 227.016 187.254 227.537 187.254L227.277 181.517L221.543 181.778C221.282 182.299 221.282 182.56 221.021 182.821C220.761 183.082 220.5 183.603 220.24 183.864C218.936 185.168 217.633 185.69 216.33 185.69C215.027 185.69 213.724 185.168 212.681 184.125C211.638 183.082 211.117 181.778 211.117 180.474C211.117 179.17 211.638 177.866 212.681 176.822C213.724 175.779 215.027 175.258 216.33 175.258C217.633 175.258 218.936 175.779 219.979 176.822C220.24 177.083 220.5 177.344 220.761 177.866C221.021 178.126 221.282 178.648 221.282 178.909L246.825 178.387L247.607 179.17L245 181.256ZM230.404 178.387H227.016L226.755 163.782L229.101 161.174L229.883 161.957L230.404 178.387ZM218.415 182.56C218.936 182.038 219.197 181.256 219.197 180.213C219.197 179.17 218.936 178.648 218.154 178.126C217.633 177.605 216.851 177.344 215.809 177.344C215.027 177.344 214.245 177.605 213.724 178.387C213.202 178.909 212.942 179.691 212.942 180.734C212.942 181.778 213.202 182.299 213.984 182.821C214.505 183.342 215.287 183.603 216.33 183.603C217.112 183.603 217.894 183.342 218.415 182.56ZM229.101 180.474C229.101 180.213 229.362 180.213 229.362 179.952C229.362 179.691 229.362 179.691 229.101 179.43C228.841 179.43 228.841 179.17 228.58 179.17C228.319 179.17 228.319 179.17 228.059 179.43C227.798 179.691 227.798 179.691 227.798 179.952C227.798 180.213 227.798 180.213 228.059 180.474C228.319 180.474 228.319 180.734 228.58 180.734C228.841 180.734 229.101 180.734 229.101 180.474ZM231.186 194.557C231.708 194.035 231.968 193.253 231.968 192.21C231.968 191.166 231.708 190.645 230.926 190.123C230.404 189.602 229.622 189.341 228.58 189.341C227.537 189.341 227.016 189.602 226.495 190.384C225.974 190.906 225.713 191.688 225.713 192.731C225.713 193.774 225.974 194.296 226.755 194.818C227.277 195.339 228.059 195.6 229.101 195.6C229.883 195.6 230.665 195.339 231.186 194.557Z" fill="#81C8F7"/>
<path d="M361.245 51.1169C361.766 50.5953 362.288 50.0737 362.548 50.3345C362.809 50.5953 362.548 51.3777 362.027 51.8993L361.245 51.1169Z" fill="#161459"/>
<path d="M356.293 54.5074C357.075 53.725 358.117 52.6818 359.421 51.8994C360.984 51.117 361.245 50.8562 361.766 51.3778C362.288 51.8994 362.288 52.421 361.766 53.9858C361.245 55.5506 360.463 56.5938 359.681 57.637L356.293 54.5074Z" fill="#FFDB8F"/>
<path d="M313.809 108.754C314.591 109.536 316.415 111.101 316.676 112.144C320.586 107.189 358.378 62.3313 360.985 56.3329C360.985 55.5505 360.985 54.5073 359.942 53.7249C358.9 52.9425 358.118 52.9425 357.336 53.2033C352.123 56.5937 314.33 101.451 310.16 106.407C311.463 106.407 313.027 107.971 313.809 108.754Z" fill="#F4CF71"/>
<path d="M310.42 106.146C310.42 106.146 305.468 109.797 307.553 112.405C309.378 115.013 310.42 116.056 312.506 115.795C314.591 115.534 316.936 112.144 316.936 112.144C316.936 112.144 314.591 106.928 310.42 106.146Z" fill="#F26B8F"/>
<path d="M152.734 116.578C153.454 116.578 154.037 115.994 154.037 115.274C154.037 114.554 153.454 113.97 152.734 113.97C152.014 113.97 151.431 114.554 151.431 115.274C151.431 115.994 152.014 116.578 152.734 116.578Z" fill="#F2E7EE"/>
<path d="M190.527 174.475C192.542 174.475 194.176 172.841 194.176 170.824C194.176 168.808 192.542 167.173 190.527 167.173C188.512 167.173 186.878 168.808 186.878 170.824C186.878 172.841 188.512 174.475 190.527 174.475Z" fill="#F2E7EE"/>
<path d="M282.532 135.877C284.547 135.877 286.181 134.242 286.181 132.225C286.181 130.209 284.547 128.574 282.532 128.574C280.517 128.574 278.883 130.209 278.883 132.225C278.883 134.242 280.517 135.877 282.532 135.877Z" fill="#F2E7EE"/>
<path d="M297.649 103.799C299.089 103.799 300.256 102.631 300.256 101.191C300.256 99.7502 299.089 98.5825 297.649 98.5825C296.21 98.5825 295.043 99.7502 295.043 101.191C295.043 102.631 296.21 103.799 297.649 103.799Z" fill="#F2E7EE"/>
<path d="M225.713 156.741C227.152 156.741 228.319 155.573 228.319 154.133C228.319 152.693 227.152 151.525 225.713 151.525C224.273 151.525 223.106 152.693 223.106 154.133C223.106 155.573 224.273 156.741 225.713 156.741Z" fill="#F2E7EE"/>
<path d="M228.841 113.97C230.136 113.97 231.187 112.919 231.187 111.623C231.187 110.326 230.136 109.275 228.841 109.275C227.545 109.275 226.495 110.326 226.495 111.623C226.495 112.919 227.545 113.97 228.841 113.97Z" fill="#F2E7EE"/>
<path d="M248.91 79.5438C249.342 79.5438 249.692 79.1935 249.692 78.7614C249.692 78.3293 249.342 77.979 248.91 77.979C248.478 77.979 248.128 78.3293 248.128 78.7614C248.128 79.1935 248.478 79.5438 248.91 79.5438Z" fill="#F2E7EE"/>
</g>
<defs>
<clipPath id="clip0_3323_1682">
<rect width="490" height="326" fill="white"/>
</clipPath>
</defs>
</svg>
